<mxfile host="app.diagrams.net" modified="2023-03-18T13:28:36.896Z" agent="5.0 (Macintosh; Intel Mac OS X 10_15_7) AppleWebKit/537.36 (KHTML, like Gecko) Chrome/111.0.0.0 Safari/537.36" etag="E468cq7ki5f7vGNHQvdw" version="21.0.6" type="github">
  <diagram name="Page-1" id="S0UQIYWUkZK6q_A50c44">
    <mxGraphModel dx="1913" dy="1918" grid="1" gridSize="10" guides="1" tooltips="1" connect="1" arrows="1" fold="1" page="1" pageScale="1" pageWidth="827" pageHeight="1169" math="0" shadow="0">
      <root>
        <mxCell id="0" />
        <mxCell id="1" parent="0" />
        <mxCell id="7U0Bd-w2LLLf-2XWp2gc-9" style="edgeStyle=orthogonalEdgeStyle;rounded=0;orthogonalLoop=1;jettySize=auto;html=1;entryX=0;entryY=0.25;entryDx=0;entryDy=0;exitX=0.5;exitY=0;exitDx=0;exitDy=0;" parent="1" source="7U0Bd-w2LLLf-2XWp2gc-1" target="7U0Bd-w2LLLf-2XWp2gc-8" edge="1">
          <mxGeometry relative="1" as="geometry" />
        </mxCell>
        <mxCell id="7U0Bd-w2LLLf-2XWp2gc-60" style="edgeStyle=orthogonalEdgeStyle;rounded=0;orthogonalLoop=1;jettySize=auto;html=1;entryX=0.47;entryY=1.017;entryDx=0;entryDy=0;entryPerimeter=0;" parent="1" source="7U0Bd-w2LLLf-2XWp2gc-8" target="7U0Bd-w2LLLf-2XWp2gc-55" edge="1">
          <mxGeometry relative="1" as="geometry" />
        </mxCell>
        <mxCell id="7U0Bd-w2LLLf-2XWp2gc-63" style="edgeStyle=orthogonalEdgeStyle;rounded=0;orthogonalLoop=1;jettySize=auto;html=1;" parent="1" source="7U0Bd-w2LLLf-2XWp2gc-8" target="7U0Bd-w2LLLf-2XWp2gc-61" edge="1">
          <mxGeometry relative="1" as="geometry">
            <Array as="points">
              <mxPoint x="951" y="120" />
            </Array>
          </mxGeometry>
        </mxCell>
        <mxCell id="7U0Bd-w2LLLf-2XWp2gc-8" value="Tracker" style="rounded=0;whiteSpace=wrap;html=1;" parent="1" vertex="1">
          <mxGeometry x="380" y="70" width="120" height="60" as="geometry" />
        </mxCell>
        <mxCell id="7U0Bd-w2LLLf-2XWp2gc-10" value="publish capablity" style="text;html=1;strokeColor=none;fillColor=none;align=center;verticalAlign=middle;whiteSpace=wrap;rounded=0;" parent="1" vertex="1">
          <mxGeometry x="150" y="60" width="240" height="20" as="geometry" />
        </mxCell>
        <mxCell id="7U0Bd-w2LLLf-2XWp2gc-49" value="" style="shape=table;startSize=0;container=1;collapsible=0;childLayout=tableLayout;" parent="1" vertex="1">
          <mxGeometry x="223" y="-30" width="460" height="50" as="geometry" />
        </mxCell>
        <mxCell id="7U0Bd-w2LLLf-2XWp2gc-50" value="" style="shape=tableRow;horizontal=0;startSize=0;swimlaneHead=0;swimlaneBody=0;strokeColor=inherit;top=0;left=0;bottom=0;right=0;collapsible=0;dropTarget=0;fillColor=none;points=[[0,0.5],[1,0.5]];portConstraint=eastwest;" parent="7U0Bd-w2LLLf-2XWp2gc-49" vertex="1">
          <mxGeometry width="460" height="20" as="geometry" />
        </mxCell>
        <mxCell id="7U0Bd-w2LLLf-2XWp2gc-51" value="filename" style="shape=partialRectangle;html=1;whiteSpace=wrap;connectable=0;strokeColor=inherit;overflow=hidden;fillColor=none;top=0;left=0;bottom=0;right=0;pointerEvents=1;" parent="7U0Bd-w2LLLf-2XWp2gc-50" vertex="1">
          <mxGeometry width="116" height="20" as="geometry">
            <mxRectangle width="116" height="20" as="alternateBounds" />
          </mxGeometry>
        </mxCell>
        <mxCell id="7U0Bd-w2LLLf-2XWp2gc-52" value="merkelhash" style="shape=partialRectangle;html=1;whiteSpace=wrap;connectable=0;strokeColor=inherit;overflow=hidden;fillColor=none;top=0;left=0;bottom=0;right=0;pointerEvents=1;" parent="7U0Bd-w2LLLf-2XWp2gc-50" vertex="1">
          <mxGeometry x="116" width="114" height="20" as="geometry">
            <mxRectangle width="114" height="20" as="alternateBounds" />
          </mxGeometry>
        </mxCell>
        <mxCell id="7U0Bd-w2LLLf-2XWp2gc-53" value="hostname" style="shape=partialRectangle;html=1;whiteSpace=wrap;connectable=0;strokeColor=inherit;overflow=hidden;fillColor=none;top=0;left=0;bottom=0;right=0;pointerEvents=1;" parent="7U0Bd-w2LLLf-2XWp2gc-50" vertex="1">
          <mxGeometry x="230" width="116" height="20" as="geometry">
            <mxRectangle width="116" height="20" as="alternateBounds" />
          </mxGeometry>
        </mxCell>
        <mxCell id="7U0Bd-w2LLLf-2XWp2gc-54" value="network latency" style="shape=partialRectangle;html=1;whiteSpace=wrap;connectable=0;strokeColor=inherit;overflow=hidden;fillColor=none;top=0;left=0;bottom=0;right=0;pointerEvents=1;" parent="7U0Bd-w2LLLf-2XWp2gc-50" vertex="1">
          <mxGeometry x="346" width="114" height="20" as="geometry">
            <mxRectangle width="114" height="20" as="alternateBounds" />
          </mxGeometry>
        </mxCell>
        <mxCell id="7U0Bd-w2LLLf-2XWp2gc-55" value="" style="shape=tableRow;horizontal=0;startSize=0;swimlaneHead=0;swimlaneBody=0;strokeColor=inherit;top=0;left=0;bottom=0;right=0;collapsible=0;dropTarget=0;fillColor=none;points=[[0,0.5],[1,0.5]];portConstraint=eastwest;" parent="7U0Bd-w2LLLf-2XWp2gc-49" vertex="1">
          <mxGeometry y="20" width="460" height="30" as="geometry" />
        </mxCell>
        <mxCell id="7U0Bd-w2LLLf-2XWp2gc-56" value="" style="shape=partialRectangle;html=1;whiteSpace=wrap;connectable=0;strokeColor=inherit;overflow=hidden;fillColor=none;top=0;left=0;bottom=0;right=0;pointerEvents=1;" parent="7U0Bd-w2LLLf-2XWp2gc-55" vertex="1">
          <mxGeometry width="116" height="30" as="geometry">
            <mxRectangle width="116" height="30" as="alternateBounds" />
          </mxGeometry>
        </mxCell>
        <mxCell id="7U0Bd-w2LLLf-2XWp2gc-57" value="" style="shape=partialRectangle;html=1;whiteSpace=wrap;connectable=0;strokeColor=inherit;overflow=hidden;fillColor=none;top=0;left=0;bottom=0;right=0;pointerEvents=1;" parent="7U0Bd-w2LLLf-2XWp2gc-55" vertex="1">
          <mxGeometry x="116" width="114" height="30" as="geometry">
            <mxRectangle width="114" height="30" as="alternateBounds" />
          </mxGeometry>
        </mxCell>
        <mxCell id="7U0Bd-w2LLLf-2XWp2gc-58" value="" style="shape=partialRectangle;html=1;whiteSpace=wrap;connectable=0;strokeColor=inherit;overflow=hidden;fillColor=none;top=0;left=0;bottom=0;right=0;pointerEvents=1;" parent="7U0Bd-w2LLLf-2XWp2gc-55" vertex="1">
          <mxGeometry x="230" width="116" height="30" as="geometry">
            <mxRectangle width="116" height="30" as="alternateBounds" />
          </mxGeometry>
        </mxCell>
        <mxCell id="7U0Bd-w2LLLf-2XWp2gc-59" value="" style="shape=partialRectangle;html=1;whiteSpace=wrap;connectable=0;strokeColor=inherit;overflow=hidden;fillColor=none;top=0;left=0;bottom=0;right=0;pointerEvents=1;" parent="7U0Bd-w2LLLf-2XWp2gc-55" vertex="1">
          <mxGeometry x="346" width="114" height="30" as="geometry">
            <mxRectangle width="114" height="30" as="alternateBounds" />
          </mxGeometry>
        </mxCell>
        <mxCell id="7U0Bd-w2LLLf-2XWp2gc-65" style="edgeStyle=orthogonalEdgeStyle;rounded=0;orthogonalLoop=1;jettySize=auto;html=1;entryX=1;entryY=0.333;entryDx=0;entryDy=0;entryPerimeter=0;dashed=1;" parent="1" source="7U0Bd-w2LLLf-2XWp2gc-61" target="7U0Bd-w2LLLf-2XWp2gc-1" edge="1">
          <mxGeometry relative="1" as="geometry" />
        </mxCell>
        <mxCell id="7U0Bd-w2LLLf-2XWp2gc-74" style="edgeStyle=orthogonalEdgeStyle;rounded=0;orthogonalLoop=1;jettySize=auto;html=1;entryX=1;entryY=0.607;entryDx=0;entryDy=0;entryPerimeter=0;dashed=1;" parent="1" source="7U0Bd-w2LLLf-2XWp2gc-61" target="7U0Bd-w2LLLf-2XWp2gc-68" edge="1">
          <mxGeometry relative="1" as="geometry">
            <Array as="points">
              <mxPoint x="400" y="280" />
              <mxPoint x="400" y="568" />
            </Array>
          </mxGeometry>
        </mxCell>
        <mxCell id="7U0Bd-w2LLLf-2XWp2gc-79" style="edgeStyle=orthogonalEdgeStyle;rounded=0;orthogonalLoop=1;jettySize=auto;html=1;exitX=0;exitY=0.25;exitDx=0;exitDy=0;entryX=0.083;entryY=1.067;entryDx=0;entryDy=0;entryPerimeter=0;" parent="1" source="7U0Bd-w2LLLf-2XWp2gc-61" target="7U0Bd-w2LLLf-2XWp2gc-8" edge="1">
          <mxGeometry relative="1" as="geometry">
            <Array as="points">
              <mxPoint x="801" y="260" />
              <mxPoint x="390" y="260" />
            </Array>
          </mxGeometry>
        </mxCell>
        <mxCell id="7U0Bd-w2LLLf-2XWp2gc-64" value="Get list of hosts" style="text;html=1;strokeColor=none;fillColor=none;align=center;verticalAlign=middle;whiteSpace=wrap;rounded=0;" parent="1" vertex="1">
          <mxGeometry x="600" y="120" width="110" height="30" as="geometry" />
        </mxCell>
        <mxCell id="7U0Bd-w2LLLf-2XWp2gc-66" value="" style="group" parent="1" vertex="1" connectable="0">
          <mxGeometry x="50" y="210" width="220" height="210" as="geometry" />
        </mxCell>
        <mxCell id="7U0Bd-w2LLLf-2XWp2gc-1" value="" style="rounded=0;whiteSpace=wrap;html=1;" parent="7U0Bd-w2LLLf-2XWp2gc-66" vertex="1">
          <mxGeometry width="220" height="210" as="geometry" />
        </mxCell>
        <mxCell id="7U0Bd-w2LLLf-2XWp2gc-3" value="Peer 1" style="text;html=1;strokeColor=none;fillColor=none;align=center;verticalAlign=middle;whiteSpace=wrap;rounded=0;" parent="7U0Bd-w2LLLf-2XWp2gc-66" vertex="1">
          <mxGeometry x="10" y="10" width="60" height="30" as="geometry" />
        </mxCell>
        <mxCell id="7U0Bd-w2LLLf-2XWp2gc-4" value="" style="aspect=fixed;html=1;points=[];align=center;image;fontSize=12;image=img/lib/azure2/general/File.svg;" parent="7U0Bd-w2LLLf-2XWp2gc-66" vertex="1">
          <mxGeometry x="70" y="40" width="56.00000000000001" height="69" as="geometry" />
        </mxCell>
        <mxCell id="7U0Bd-w2LLLf-2XWp2gc-6" value="byte array file" style="rounded=0;whiteSpace=wrap;html=1;" parent="7U0Bd-w2LLLf-2XWp2gc-66" vertex="1">
          <mxGeometry x="23" y="160" width="150" height="10" as="geometry" />
        </mxCell>
        <mxCell id="7U0Bd-w2LLLf-2XWp2gc-7" style="edgeStyle=orthogonalEdgeStyle;rounded=0;orthogonalLoop=1;jettySize=auto;html=1;" parent="7U0Bd-w2LLLf-2XWp2gc-66" source="7U0Bd-w2LLLf-2XWp2gc-4" target="7U0Bd-w2LLLf-2XWp2gc-6" edge="1">
          <mxGeometry relative="1" as="geometry" />
        </mxCell>
        <mxCell id="7U0Bd-w2LLLf-2XWp2gc-67" value="" style="group" parent="1" vertex="1" connectable="0">
          <mxGeometry x="50" y="440" width="220" height="210" as="geometry" />
        </mxCell>
        <mxCell id="7U0Bd-w2LLLf-2XWp2gc-68" value="" style="rounded=0;whiteSpace=wrap;html=1;" parent="7U0Bd-w2LLLf-2XWp2gc-67" vertex="1">
          <mxGeometry width="220" height="210" as="geometry" />
        </mxCell>
        <mxCell id="7U0Bd-w2LLLf-2XWp2gc-69" value="Peer 2" style="text;html=1;strokeColor=none;fillColor=none;align=center;verticalAlign=middle;whiteSpace=wrap;rounded=0;" parent="7U0Bd-w2LLLf-2XWp2gc-67" vertex="1">
          <mxGeometry x="10" y="10" width="60" height="30" as="geometry" />
        </mxCell>
        <mxCell id="7U0Bd-w2LLLf-2XWp2gc-70" value="" style="aspect=fixed;html=1;points=[];align=center;image;fontSize=12;image=img/lib/azure2/general/File.svg;" parent="7U0Bd-w2LLLf-2XWp2gc-67" vertex="1">
          <mxGeometry x="70" y="40" width="56.00000000000001" height="69" as="geometry" />
        </mxCell>
        <mxCell id="7U0Bd-w2LLLf-2XWp2gc-71" value="byte array file" style="rounded=0;whiteSpace=wrap;html=1;" parent="7U0Bd-w2LLLf-2XWp2gc-67" vertex="1">
          <mxGeometry x="23" y="160" width="150" height="10" as="geometry" />
        </mxCell>
        <mxCell id="7U0Bd-w2LLLf-2XWp2gc-72" style="edgeStyle=orthogonalEdgeStyle;rounded=0;orthogonalLoop=1;jettySize=auto;html=1;" parent="7U0Bd-w2LLLf-2XWp2gc-67" source="7U0Bd-w2LLLf-2XWp2gc-70" target="7U0Bd-w2LLLf-2XWp2gc-71" edge="1">
          <mxGeometry relative="1" as="geometry" />
        </mxCell>
        <mxCell id="7U0Bd-w2LLLf-2XWp2gc-80" value="Report unavailable host after failure" style="text;html=1;align=center;verticalAlign=middle;resizable=0;points=[];autosize=1;strokeColor=none;fillColor=none;" parent="1" vertex="1">
          <mxGeometry x="520" y="230" width="210" height="30" as="geometry" />
        </mxCell>
        <mxCell id="7U0Bd-w2LLLf-2XWp2gc-82" value="" style="group" parent="1" vertex="1" connectable="0">
          <mxGeometry x="790" y="180" width="311" height="200" as="geometry" />
        </mxCell>
        <mxCell id="7U0Bd-w2LLLf-2XWp2gc-61" value="" style="rounded=0;whiteSpace=wrap;html=1;" parent="7U0Bd-w2LLLf-2XWp2gc-82" vertex="1">
          <mxGeometry x="11" width="300" height="200" as="geometry" />
        </mxCell>
        <mxCell id="7U0Bd-w2LLLf-2XWp2gc-62" value="Peer 3 -&amp;gt; downloader" style="text;html=1;strokeColor=none;fillColor=none;align=center;verticalAlign=middle;whiteSpace=wrap;rounded=0;" parent="7U0Bd-w2LLLf-2XWp2gc-82" vertex="1">
          <mxGeometry y="21" width="170" as="geometry" />
        </mxCell>
        <mxCell id="7U0Bd-w2LLLf-2XWp2gc-78" value="" style="group" parent="7U0Bd-w2LLLf-2XWp2gc-82" vertex="1" connectable="0">
          <mxGeometry x="41" y="92.5" width="110" height="85" as="geometry" />
        </mxCell>
        <mxCell id="7U0Bd-w2LLLf-2XWp2gc-75" value="" style="rounded=0;whiteSpace=wrap;html=1;" parent="7U0Bd-w2LLLf-2XWp2gc-78" vertex="1">
          <mxGeometry x="5" width="105" height="85" as="geometry" />
        </mxCell>
        <mxCell id="7U0Bd-w2LLLf-2XWp2gc-76" value="&lt;font style=&quot;font-size: 9px;&quot;&gt;Heap&lt;br&gt;&amp;lt;Network Speed, host&amp;gt;&lt;/font&gt;" style="text;html=1;strokeColor=none;fillColor=none;align=center;verticalAlign=middle;whiteSpace=wrap;rounded=0;" parent="7U0Bd-w2LLLf-2XWp2gc-78" vertex="1">
          <mxGeometry y="30" width="110" height="30" as="geometry" />
        </mxCell>
        <mxCell id="7U0Bd-w2LLLf-2XWp2gc-81" value="Merkel tree&amp;nbsp;&lt;br&gt;based retry" style="whiteSpace=wrap;html=1;aspect=fixed;" parent="7U0Bd-w2LLLf-2XWp2gc-82" vertex="1">
          <mxGeometry x="210" y="92.5" width="81" height="81" as="geometry" />
        </mxCell>
        <mxCell id="7U0Bd-w2LLLf-2XWp2gc-83" style="edgeStyle=orthogonalEdgeStyle;rounded=0;orthogonalLoop=1;jettySize=auto;html=1;" parent="1" source="7U0Bd-w2LLLf-2XWp2gc-61" edge="1">
          <mxGeometry relative="1" as="geometry">
            <mxPoint x="490" y="90" as="targetPoint" />
            <Array as="points">
              <mxPoint x="980" y="90" />
              <mxPoint x="500" y="90" />
            </Array>
          </mxGeometry>
        </mxCell>
        <mxCell id="7U0Bd-w2LLLf-2XWp2gc-84" value="Publish capablity after download complete" style="text;html=1;align=center;verticalAlign=middle;resizable=0;points=[];autosize=1;strokeColor=none;fillColor=none;" parent="1" vertex="1">
          <mxGeometry x="520" y="55" width="250" height="30" as="geometry" />
        </mxCell>
        <mxCell id="7U0Bd-w2LLLf-2XWp2gc-85" value="&lt;i&gt;&lt;b&gt;/get?filename=cksum(sample.txt)&amp;amp;chunk=123&lt;/b&gt;&lt;/i&gt;" style="text;html=1;align=center;verticalAlign=middle;resizable=0;points=[];autosize=1;strokeColor=none;fillColor=none;rotation=-45;" parent="1" vertex="1">
          <mxGeometry x="360" y="370" width="280" height="30" as="geometry" />
        </mxCell>
        <mxCell id="7U0Bd-w2LLLf-2XWp2gc-86" style="edgeStyle=orthogonalEdgeStyle;rounded=0;orthogonalLoop=1;jettySize=auto;html=1;entryX=0.592;entryY=0.983;entryDx=0;entryDy=0;entryPerimeter=0;dashed=1;" parent="1" source="7U0Bd-w2LLLf-2XWp2gc-61" target="7U0Bd-w2LLLf-2XWp2gc-8" edge="1">
          <mxGeometry relative="1" as="geometry">
            <Array as="points">
              <mxPoint x="451" y="210" />
            </Array>
          </mxGeometry>
        </mxCell>
        <mxCell id="7U0Bd-w2LLLf-2XWp2gc-87" value="Fetch new host periodically" style="text;html=1;align=center;verticalAlign=middle;resizable=0;points=[];autosize=1;strokeColor=none;fillColor=none;" parent="1" vertex="1">
          <mxGeometry x="560" y="180" width="170" height="30" as="geometry" />
        </mxCell>
        <mxCell id="k-NxRLuGSRXrntSRqvCU-1" value="After pasting the file in torrent specified location, it will be encoded and will be serialized in a file to avoid heavy memory usage&amp;nbsp;&lt;br&gt;&lt;br&gt;Encoded file name - Filename_encoded for easy searching" style="text;html=1;strokeColor=none;fillColor=none;align=center;verticalAlign=middle;whiteSpace=wrap;rounded=0;rotation=-90;" vertex="1" parent="1">
          <mxGeometry x="210" y="400" width="230" height="80" as="geometry" />
        </mxCell>
        <mxCell id="k-NxRLuGSRXrntSRqvCU-3" value="Peer will periodically do automatic clean up task&amp;nbsp;&lt;br&gt;if file whose byte array file is present but file is deleted&lt;br&gt;or encode file whose byte array file somehow got deleted" style="text;html=1;align=center;verticalAlign=middle;resizable=0;points=[];autosize=1;strokeColor=none;fillColor=none;rotation=-91;" vertex="1" parent="1">
          <mxGeometry x="-160" y="410" width="330" height="60" as="geometry" />
        </mxCell>
        <mxCell id="k-NxRLuGSRXrntSRqvCU-8" value="&lt;b&gt;&lt;i&gt;P1&lt;/i&gt;&lt;/b&gt; - use java build in tools to schedule job directly when any changes were to be made&amp;nbsp;&lt;br&gt;in directory" style="shape=note;strokeWidth=2;fontSize=14;size=20;whiteSpace=wrap;html=1;fillColor=#fff2cc;strokeColor=#d6b656;fontColor=#666600;" vertex="1" parent="1">
          <mxGeometry x="827" y="420" width="300" height="80" as="geometry" />
        </mxCell>
        <mxCell id="k-NxRLuGSRXrntSRqvCU-9" value="&lt;font style=&quot;font-size: 19px;&quot;&gt;&lt;font style=&quot;font-size: 19px;&quot;&gt;&lt;b style=&quot;&quot;&gt;LLD -&amp;nbsp;&lt;/b&gt;&lt;/font&gt;&lt;a style=&quot;font-family: &amp;quot;Trebuchet MS&amp;quot;, Helvetica, Arial, Verdana, &amp;quot;sans-serif&amp;quot;; text-align: start;&quot; href=&quot;https://www.planttext.com/?text=ZLPBRnGn3BxFhx34PNbKN13dbYq5f09L7-9OPMSytR0poP9aMPQg_ntRcKSodQhqql5dn_xosKdss0VbmgvjYi9lj05dFHP5qA51E3y_XJFhuDewXoR01QA3csrZLOMke3zj0hfQbGYNEsFKgi44-gpy-ajl9VYPRl2ZAItb6Drbexo7fJMrlkiCZai-Ru9kV6T_HRV1vjeXSf4E_708UEASEYG5-hpEcclbDvtv2SDolJER1BfUErJLXRMaGs5iG0Xs2xQUx08eK7k8Qr1gUAYf7eIr2a1-yWOBAmJFYgco944zEmo6lNKRzlv6f-i3U6LqEB2FwaWIPIfmMDczOOtPK-CUjjIWwDSrbDIBtJPWLI05CzEd9B-dvQyxaekNObJO6GzPyxwlF3eYzSq6NUkaBPpYw8M8Ugvz60BPu8IggXWYnCSA3blx6_kmY1dEUZXfcWLO8xfVOgbfKGL295LxTZOoqIcpLetsAAAoODI24HEPo55QMauDaBRi4VQA3Gi-M4S1CzhDbNvEGg6-iY7ObjbFnd9sMBYdqaf3R5fP8C43exa9lt-OXK6tsmPRsgUVpEaZQhE7u-bfva5cWYjjb3k0ufLJYdCf1w9ppfJkRAEpMs3nCavVUrkApIikL5Z7CLFLcRFjSl34xjnX274M7uhaweY9heBJvWxQMzwXKIqAIjjy_wu3lVwBUHeoLZlTL7rIpWQlZewchHxmMPqVptYyp3BzwODHkX5uV0MgwUxTaZRMjSoSSAdZi55q0O0bdmhQ6ZzjpL1YilDAEopf11nOI7ZxzehW1eCratCUYLUSXbc-peOBI9uqO95xrsGjoIdYxPqE-B_1bFV6PC4zBBS6DrnQBI9mlzvGyw1aNzyRsJHOQeIy7YD4I7v2CbVs8FHJsA2IH-D-lDXEaTJ2Ak4eKp5PaCxvy2wEtfvThDwNYpc7UaFM4PzDcxYVchuyP9o-oTj8HxV_58eZuHnFqXKpxocpfpFhyDSEVVY--aa35o7kMFoIbgMjpKvQ8ccQU7RxnQFdkxyqpAwz3OBA1Fj-qfS41Lpmv2GXKX__OBaBihL5Nm7OOa9Z1JhcemOvFcYMm_buTPH_uEgANabDfo3PsJDFyI2ix8b_kLqbBotT3FAmNiQOHVSVkZKnPl86Yze9b-bfo5tT3xJYc2uS-itu3m00&quot; target=&quot;_blank&quot; id=&quot;planteditorlink&quot;&gt;Edit&lt;/a&gt;&lt;/font&gt;" style="text;html=1;align=center;verticalAlign=middle;resizable=0;points=[];autosize=1;strokeColor=none;fillColor=none;" vertex="1" parent="1">
          <mxGeometry x="455" y="550" width="110" height="40" as="geometry" />
        </mxCell>
      </root>
    </mxGraphModel>
  </diagram>
</mxfile>
